<svg width="23" height="23" viewBox="0 0 23 23" fill="none" xmlns="http://www.w3.org/2000/svg">
<circle cx="11.2568" cy="11.2568" r="10.8547" stroke="#D4D4D8" stroke-width="0.804054"/>
<path d="M16.2462 8.83106C15.9092 8.9808 15.5536 9.07439 15.1793 9.13054C15.5536 8.90593 15.8531 8.5503 15.9841 8.11979C15.6285 8.32569 15.2354 8.47543 14.8049 8.56901C14.468 8.21338 13.9813 7.98877 13.4572 7.98877C12.4465 7.98877 11.6229 8.81234 11.6229 9.82309C11.6229 9.97283 11.6416 10.1039 11.6791 10.2349C10.1629 10.16 8.79656 9.43002 7.8794 8.30697C7.72966 8.58773 7.63607 8.88721 7.63607 9.22413C7.63607 9.86053 7.95427 10.4221 8.45964 10.759C8.16016 10.7403 7.8794 10.6654 7.61735 10.5344V10.5531C7.61735 11.4515 8.25375 12.2002 9.09604 12.3687C8.9463 12.4061 8.77784 12.4248 8.60938 12.4248C8.49708 12.4248 8.36606 12.4061 8.25375 12.3874C8.49708 13.1174 9.17091 13.6602 9.97577 13.6602C9.33937 14.1469 8.55323 14.4463 7.69222 14.4463C7.54248 14.4463 7.39274 14.4463 7.26172 14.4276C8.08529 14.9517 9.03989 15.2512 10.0881 15.2512C13.476 15.2512 15.329 12.4436 15.329 10.0103C15.329 9.9354 15.329 9.84181 15.329 9.76694C15.6846 9.52361 16.0028 9.20541 16.2462 8.83106Z" fill="#090914"/>
</svg>
