<svg width="23" height="23" viewBox="0 0 23 23" fill="none" xmlns="http://www.w3.org/2000/svg">
<circle cx="11.5811" cy="11.2569" r="10.8547" stroke="#D4D4D8" stroke-width="0.804054"/>
<path d="M11.5818 6.79226C13.0361 6.79226 13.2084 6.7977 13.7829 6.8239C14.1283 6.82813 14.4704 6.89155 14.7944 7.01143C15.0294 7.10203 15.2427 7.24084 15.4208 7.4189C15.5989 7.59696 15.7377 7.81033 15.8283 8.04528C15.9481 8.36927 16.0116 8.71141 16.0158 9.05683C16.0417 9.63134 16.0474 9.80357 16.0474 11.2579C16.0474 12.7122 16.042 12.8844 16.0158 13.4589C16.0116 13.8043 15.9481 14.1465 15.8283 14.4705C15.7377 14.7054 15.5989 14.9188 15.4208 15.0968C15.2427 15.2749 15.0294 15.4137 14.7944 15.5043C14.4704 15.6242 14.1283 15.6876 13.7829 15.6918C13.2086 15.7178 13.0364 15.7235 11.5818 15.7235C10.1273 15.7235 9.95504 15.718 9.38079 15.6918C9.03537 15.6876 8.69323 15.6242 8.36924 15.5043C8.13429 15.4137 7.92092 15.2749 7.74286 15.0968C7.5648 14.9188 7.42599 14.7054 7.33538 14.4705C7.21551 14.1465 7.15209 13.8043 7.14786 13.4589C7.12192 12.8844 7.11622 12.7122 7.11622 11.2579C7.11622 9.80357 7.12166 9.63134 7.14786 9.05683C7.15209 8.71141 7.21551 8.36927 7.33538 8.04528C7.42599 7.81033 7.5648 7.59696 7.74286 7.4189C7.92092 7.24084 8.13429 7.10203 8.36924 7.01143C8.69323 6.89155 9.03537 6.82813 9.38079 6.8239C9.9553 6.79796 10.1275 6.79226 11.5818 6.79226ZM11.5818 5.81079C10.1034 5.81079 9.91718 5.81702 9.33618 5.84347C8.88411 5.85246 8.43683 5.93806 8.01338 6.09662C7.65013 6.23348 7.32112 6.44796 7.0493 6.72508C6.77192 6.997 6.55727 7.3262 6.42032 7.68968C6.26176 8.11313 6.17616 8.56041 6.16717 9.01248C6.14123 9.59296 6.13501 9.77919 6.13501 11.2576C6.13501 12.736 6.14123 12.9223 6.16769 13.5033C6.17668 13.9553 6.26228 14.4026 6.42084 14.8261C6.55763 15.1895 6.77211 15.5187 7.0493 15.7907C7.32127 16.0678 7.65047 16.2823 8.0139 16.4191C8.43735 16.5777 8.88463 16.6633 9.3367 16.6723C9.9177 16.6982 10.1031 16.7049 11.5823 16.7049C13.0615 16.7049 13.247 16.6987 13.828 16.6723C14.2801 16.6633 14.7273 16.5777 15.1508 16.4191C15.5125 16.2789 15.841 16.0648 16.1152 15.7904C16.3894 15.5159 16.6034 15.1873 16.7433 14.8255C16.9019 14.4021 16.9875 13.9548 16.9965 13.5027C17.0224 12.9223 17.0286 12.736 17.0286 11.2576C17.0286 9.77919 17.0224 9.59296 16.996 9.01196C16.987 8.55989 16.9014 8.11262 16.7428 7.68916C16.606 7.32573 16.3915 6.99653 16.1144 6.72456C15.8424 6.44737 15.5132 6.2329 15.1498 6.0961C14.7263 5.93754 14.279 5.85195 13.827 5.84295C13.2465 5.81702 13.0602 5.81079 11.5818 5.81079Z" fill="#090914"/>
<path d="M11.5834 8.46167C11.0302 8.46167 10.4895 8.62572 10.0295 8.93306C9.5695 9.24041 9.211 9.67725 8.99929 10.1883C8.78759 10.6994 8.7322 11.2618 8.84012 11.8044C8.94805 12.347 9.21444 12.8454 9.60562 13.2366C9.9968 13.6277 10.4952 13.8941 11.0378 14.0021C11.5803 14.11 12.1427 14.0546 12.6538 13.8429C13.1649 13.6312 13.6018 13.2727 13.9091 12.8127C14.2165 12.3527 14.3805 11.8119 14.3805 11.2587C14.3805 10.5169 14.0858 9.80547 13.5613 9.28091C13.0367 8.75636 12.3253 8.46167 11.5834 8.46167ZM11.5834 13.0743C11.2244 13.0743 10.8733 12.9679 10.5748 12.7684C10.2762 12.5689 10.0435 12.2853 9.90605 11.9535C9.76863 11.6218 9.73267 11.2567 9.80273 10.9045C9.87278 10.5523 10.0457 10.2288 10.2996 9.97491C10.5535 9.721 10.877 9.54808 11.2292 9.47802C11.5814 9.40797 11.9465 9.44392 12.2783 9.58134C12.61 9.71876 12.8936 9.95147 13.0931 10.25C13.2926 10.5486 13.3991 10.8996 13.3991 11.2587C13.3991 11.7403 13.2078 12.2021 12.8673 12.5426C12.5268 12.8831 12.065 13.0743 11.5834 13.0743Z" fill="#090914"/>
<path d="M14.4898 9.00426C14.8508 9.00426 15.1434 8.71162 15.1434 8.35064C15.1434 7.98966 14.8508 7.69702 14.4898 7.69702C14.1288 7.69702 13.8362 7.98966 13.8362 8.35064C13.8362 8.71162 14.1288 9.00426 14.4898 9.00426Z" fill="#090914"/>
</svg>
