<svg width="23" height="23" viewBox="0 0 23 23" fill="none" xmlns="http://www.w3.org/2000/svg">
<circle cx="11.7433" cy="11.2569" r="10.8547" stroke="#D4D4D8" stroke-width="0.804054"/>
<path fill-rule="evenodd" clip-rule="evenodd" d="M12.2299 5.81067C9.34259 5.81067 7.01971 8.13354 7.01971 11.0209C7.01971 13.322 8.51764 15.2758 10.58 15.9705C10.8405 16.014 10.9274 15.862 10.9274 15.71C10.9274 15.5798 10.9274 15.2541 10.9274 14.82C9.47284 15.1456 9.16892 14.1253 9.16892 14.1253C8.93012 13.5174 8.58277 13.3654 8.58277 13.3654C8.10517 13.0398 8.62619 13.0398 8.62619 13.0398C9.14721 13.0832 9.42943 13.5825 9.42943 13.5825C9.88532 14.3858 10.6451 14.147 10.9491 14.0167C10.9925 13.6694 11.1227 13.4523 11.2747 13.322C10.1241 13.1918 8.90841 12.7359 8.90841 10.7386C8.90841 10.1742 9.10379 9.6966 9.45113 9.34925C9.40772 9.219 9.21233 8.69798 9.49455 7.95987C9.49455 7.95987 9.92874 7.82962 10.9274 8.5026C11.3398 8.39405 11.7957 8.32893 12.2299 8.32893C12.6641 8.32893 13.12 8.39405 13.5324 8.5026C14.5311 7.82962 14.9652 7.95987 14.9652 7.95987C15.2475 8.67627 15.0738 9.19729 15.0087 9.34925C15.3343 9.71831 15.5514 10.1742 15.5514 10.7386C15.5514 12.7359 14.3357 13.1701 13.1634 13.3003C13.3588 13.4523 13.5107 13.7779 13.5107 14.2555C13.5107 14.9502 13.5107 15.5146 13.5107 15.6883C13.5107 15.8186 13.5976 15.9922 13.8798 15.9488C15.9422 15.2758 17.4401 13.322 17.4401 11.0209C17.4401 8.13354 15.1172 5.81067 12.2299 5.81067Z" fill="#090914"/>
</svg>
