<svg width="13" height="15" viewBox="0 0 13 15" fill="none" xmlns="http://www.w3.org/2000/svg">
<path d="M12.4618 7.65548C12.4618 8.08099 12.3279 8.50813 12.06 8.85017C12.0098 8.91727 11.7755 9.19385 11.5913 9.37387L11.4909 9.47206C10.0847 10.963 6.5859 13.2051 4.81141 13.9235C4.81141 13.9399 3.75676 14.367 3.25455 14.3818H3.18759C2.41752 14.3818 1.69768 13.9579 1.32939 13.2705C1.12851 12.8925 0.944361 11.796 0.927621 11.7813C0.776957 10.7977 0.676514 9.29204 0.676514 7.63911C0.676514 5.90599 0.776957 4.33326 0.961102 3.36769C0.961102 3.35132 1.14525 2.46758 1.26243 2.17299C1.44658 1.74913 1.78139 1.38744 2.1999 1.15833C2.53471 0.996307 2.88626 0.912842 3.25455 0.912842C3.63958 0.930844 4.35942 1.17469 4.64401 1.28925C6.51894 2.00934 10.1014 4.36599 11.4741 5.80616C11.7085 6.03528 11.9596 6.31514 12.0266 6.37896C12.3111 6.739 12.4618 7.18088 12.4618 7.65548Z" fill="#06382A"/>
</svg>
