<svg width="8" height="8" viewBox="0 0 8 8" fill="none" xmlns="http://www.w3.org/2000/svg">
<path d="M6.72876 3.66026C6.72876 3.46315 6.71057 3.27602 6.67938 3.09389H3.74254V4.21914H5.42408C5.34871 4.5884 5.12779 4.90028 4.80032 5.11235V5.86086H5.80353C6.39089 5.3394 6.72876 4.57093 6.72876 3.66026Z" fill="black"/>
<path d="M3.74254 1.78401C4.20256 1.78401 4.6132 1.9362 4.93807 2.23311L5.82692 1.37982C5.28893 0.895784 4.58461 0.598877 3.74254 0.598877C2.52363 0.598877 1.47104 1.27253 0.959046 2.25058L1.99344 3.02153C2.24034 2.31046 2.92907 1.78401 3.74254 1.78401Z" fill="#222222"/>
<path fill-rule="evenodd" clip-rule="evenodd" d="M3.74254 6.5869C2.52363 6.5869 1.47104 5.91325 0.959046 4.93521L1.99344 4.16425C2.24034 4.87533 2.92907 5.40177 3.74254 5.40177C4.16358 5.40177 4.51964 5.29199 4.80032 5.11235L5.80353 5.86086C5.28893 6.31744 4.58461 6.5869 3.74254 6.5869ZM1.99344 3.02153V2.25058H0.959046L1.99344 3.02153Z" fill="black"/>
<path d="M0.959046 4.16425H1.99344C1.92846 3.98461 1.89468 3.79249 1.89468 3.59289C1.89468 3.39329 1.93106 3.20117 1.99344 3.02153L0.959046 2.25058C0.745931 2.65477 0.623779 3.10886 0.623779 3.59289C0.623779 4.07692 0.745931 4.53101 0.959046 4.93521V4.16425Z" fill="black"/>
<path d="M1.99344 4.16425H0.959046V4.93521L1.99344 4.16425Z" fill="black"/>
</svg>
