<svg width="35" height="59" viewBox="0 0 35 59" fill="none" xmlns="http://www.w3.org/2000/svg">
<g opacity="0.9992">
<path d="M25.3535 57.1614L25.1362 58.3552C25.2097 58.3365 25.3734 58.3428 25.4469 58.354L25.4033 58.595C25.2508 58.5956 25.0677 58.6541 24.9593 58.7369L24.7189 58.6934L25.0091 57.0979L25.3535 57.1614Z" fill="#272727"/>
<path d="M21.0302 56.8972C21.1554 56.5011 21.4219 56.1312 21.8809 56.2763C22.3218 56.4158 22.3535 56.8424 22.2196 57.264C22.097 57.652 21.8093 58.0094 21.3671 57.8693C20.9387 57.7329 20.9013 57.3045 21.0302 56.8972ZM21.8834 57.1606C21.9818 56.8499 21.9986 56.6014 21.7956 56.5366C21.5975 56.4744 21.4636 56.6961 21.3671 57.0012C21.2718 57.302 21.2494 57.5455 21.4487 57.6084C21.6467 57.6713 21.7781 57.4944 21.8834 57.1606Z" fill="#272727"/>
<path d="M17.4651 55.4073C17.6426 55.0312 17.9564 54.7005 18.3917 54.9067C18.8096 55.1041 18.7834 55.5313 18.5948 55.9311C18.421 56.2991 18.0878 56.6142 17.6681 56.4162C17.2615 56.2238 17.282 55.7941 17.4651 55.4073ZM18.2753 55.7841C18.4148 55.4896 18.4646 55.2454 18.2728 55.1539C18.0853 55.0655 17.9222 55.2672 17.7858 55.5562C17.6513 55.8414 17.5965 56.0793 17.7846 56.1683C17.972 56.258 18.1252 56.1005 18.2753 55.7841Z" fill="#272727"/>
<path d="M15.2983 53.2361L13.6461 53.9958L13.4406 53.8582L15.0946 53.0997L15.2983 53.2361ZM13.7258 52.6875C13.8728 52.4676 14.1026 52.3997 14.323 52.5473C14.5323 52.6868 14.5833 52.9079 14.4208 53.1514C14.2819 53.3588 14.0515 53.4391 13.8248 53.2878C13.6218 53.152 13.5639 52.9303 13.7258 52.6875ZM14.2041 53.0075C14.2894 52.8805 14.2888 52.7796 14.2028 52.7223C14.1175 52.6657 14.0279 52.6943 13.9376 52.8294C13.8441 52.9689 13.8628 53.058 13.9432 53.1122C14.0235 53.1651 14.1175 53.1371 14.2041 53.0075ZM14.318 53.9429C14.465 53.7224 14.6948 53.6552 14.9153 53.8028C15.1239 53.9423 15.1768 54.1621 15.013 54.4068C14.8742 54.6142 14.6437 54.6946 14.4171 54.5432C14.2147 54.4075 14.1555 54.1858 14.318 53.9429ZM14.7963 54.2624C14.8816 54.1347 14.881 54.0344 14.7951 53.9771C14.7098 53.9205 14.6201 53.9491 14.5298 54.0843C14.4364 54.2244 14.4551 54.3128 14.5354 54.367C14.6164 54.4212 14.7085 54.3931 14.7963 54.2624Z" fill="#272727"/>
<path d="M8.28733 48.1674C8.62486 47.8679 9.09503 47.8118 9.44502 48.206C9.78316 48.5865 9.68351 49.0311 9.33664 49.3394C8.98417 49.6526 8.51775 49.6738 8.18334 49.2971C7.86761 48.9427 7.9168 48.4968 8.28733 48.1674ZM9.09066 49.0735C9.32731 48.863 9.41387 48.6002 9.22332 48.3854C9.01594 48.1525 8.74754 48.2434 8.53144 48.4352C8.30228 48.6388 8.20513 48.8929 8.40627 49.1189C8.60057 49.3375 8.85465 49.2827 9.09066 49.0735Z" fill="#272727"/>
<path d="M6.59127 45.6252L7.13243 45.2672L7.32174 45.553L5.96977 46.4479L5.57682 45.8538C5.3819 45.5592 5.43919 45.2927 5.64781 45.1544C5.82902 45.0343 5.9928 45.0679 6.09805 45.1395C6.07874 45.0561 6.08124 44.9091 6.32349 44.749L6.39012 44.7048C6.48104 44.6444 6.58379 44.5753 6.63486 44.5149L6.81794 44.792C6.77497 44.8549 6.67659 44.9259 6.53273 45.0212L6.5128 45.0343C6.36521 45.132 6.31975 45.2161 6.4636 45.4334L6.59127 45.6252ZM6.35836 45.7791L6.19644 45.5337C6.09058 45.3736 5.98908 45.3519 5.87574 45.4272C5.76551 45.5001 5.75182 45.6128 5.84647 45.7554L6.01336 46.0076L6.35836 45.7791Z" fill="#272727"/>
<path d="M4.74803 40.9692L4.85826 41.2015C4.81903 41.2351 4.77233 41.2669 4.725 41.2943C4.87321 41.3236 5.00025 41.4388 5.09677 41.6424C5.29854 42.0677 5.0893 42.4576 4.67206 42.6556C4.23178 42.8642 3.77843 42.7652 3.55923 42.3031C3.3805 41.9258 3.48823 41.6032 3.72113 41.4494L3.87122 41.7663C3.78715 41.8429 3.70807 41.9756 3.80957 42.1898C3.95218 42.4906 4.24424 42.4576 4.50268 42.3349C4.75489 42.2153 4.95666 41.9992 4.81903 41.709C4.69075 41.4382 4.47901 41.4774 4.34761 41.5397L4.33454 41.5459L4.48711 41.8672L4.22743 41.9905L3.92789 41.3585L4.74803 40.9692Z" fill="#272727"/>
<path d="M3.33297 38.2736L3.72841 38.2848L3.82929 38.6143L2.11738 38.5626L1.98846 38.1416L3.37096 37.1172L3.47869 37.4697L3.15984 37.7069L3.33297 38.2736ZM2.90638 37.8632C2.61307 38.0737 2.42502 38.2076 2.29736 38.2879L2.29798 38.2904C2.46238 38.2817 2.72953 38.2848 3.03592 38.2873L2.90638 37.8632Z" fill="#272727"/>
<path d="M2.81528 34.6655L1.21298 34.9134L1.14634 34.4837C1.47515 34.2277 2.06675 33.7576 2.22991 33.6573L2.22929 33.6529C2.06489 33.6972 1.78652 33.7395 1.52372 33.78L1.04858 33.8535L1 33.5396L2.60231 33.2917L2.66521 33.699C2.37875 33.9195 1.69684 34.4444 1.52372 34.5528L1.52434 34.5571C1.66259 34.5241 1.99141 34.4693 2.27849 34.4245L2.7661 34.3492L2.81528 34.6655Z" fill="#272727"/>
<path d="M0.763855 30.2824L2.38485 30.2407L2.39419 30.5913L0.773198 30.6331L0.763855 30.2824Z" fill="#272727"/>
<path d="M2.0882 26.134C2.38276 26.2286 2.57954 26.4771 2.54031 26.8813C2.48987 27.3932 2.10438 27.5993 1.64542 27.5538C1.20328 27.5102 0.83151 27.2219 0.882575 26.7013C0.924921 26.2716 1.19769 26.0879 1.47107 26.0754L1.43682 26.4242C1.30915 26.4454 1.17651 26.5201 1.15534 26.7393C1.12731 27.027 1.37516 27.1634 1.66847 27.1926C1.94123 27.2194 2.23827 27.1515 2.26879 26.8395C2.29121 26.6116 2.14549 26.5251 2.05457 26.4852L2.0882 26.134Z" fill="#272727"/>
<path d="M3.54433 20.4404L3.85445 20.6858L3.73862 21.0103L2.39661 19.946L2.54483 19.5312L4.26545 19.5362L4.14153 19.8831L3.74423 19.8825L3.54433 20.4404ZM3.44718 19.8569C3.08599 19.8501 2.85556 19.8457 2.70486 19.8333L2.70424 19.8358C2.84124 19.9273 3.0536 20.0892 3.29771 20.2742L3.44718 19.8569Z" fill="#272727"/>
<path d="M5.28663 17.2377L3.8537 16.4785L4.05734 16.0943C4.47395 16.0856 5.22933 16.0625 5.42051 16.0794L5.42238 16.0756C5.2642 16.0127 5.01573 15.8807 4.78033 15.7562L4.35562 15.5313L4.50446 15.2505L5.93739 16.0096L5.74433 16.3739C5.38252 16.3795 4.5219 16.3926 4.31888 16.3758L4.31701 16.3795C4.44779 16.4356 4.74421 16.5881 5.00078 16.7239L5.4367 16.9549L5.28663 17.2377Z" fill="#272727"/>
<path d="M6.06659 12.76L6.44709 12.2413C6.7267 11.8602 7.16012 11.7954 7.54622 12.0787C7.92734 12.3584 8.03944 12.8117 7.74551 13.2121L7.37374 13.7184L6.06659 12.76ZM7.35318 13.2688L7.50887 13.0571C7.69258 12.8061 7.58733 12.5589 7.33263 12.372C7.11903 12.2151 6.84688 12.1753 6.65882 12.4312L6.5019 12.6448L7.35318 13.2688Z" fill="#272727"/>
<path d="M11.9802 8.59289L10.9465 7.34368L11.2815 7.06655C11.6695 7.21788 12.3769 7.48504 12.5469 7.57409L12.55 7.5716C12.428 7.45266 12.2486 7.23594 12.0792 7.03044L11.7729 6.65991L12.0176 6.45752L13.0513 7.70673L12.7337 7.96953C12.3975 7.83626 11.5972 7.51991 11.4154 7.4265L11.4123 7.42899C11.5119 7.5305 11.7274 7.7852 11.9123 8.00876L12.2268 8.38864L11.9802 8.59289Z" fill="#272727"/>
<path d="M15.3053 5.67221L15.3925 6.05768L15.0985 6.23703L14.723 4.56622L15.0985 4.33643L16.4337 5.42062L16.1192 5.61242L15.8103 5.36209L15.3053 5.67221ZM15.5967 5.15782C15.3202 4.92554 15.1434 4.77733 15.0344 4.67333L15.0325 4.67458C15.0817 4.83213 15.1453 5.09119 15.2187 5.38886L15.5967 5.15782Z" fill="#272727"/>
<path d="M18.2442 3.01034L17.794 3.21086L17.6769 2.94869L18.8956 2.40503L19.0127 2.66721L18.5643 2.86711L19.1074 4.08581L18.7867 4.22842L18.2442 3.01034Z" fill="#272727"/>
<path d="M21.8123 1.36737L22.0788 2.29587C22.1648 2.59479 22.3441 2.63963 22.5123 2.59105C22.7053 2.53563 22.7962 2.39614 22.7147 2.11342L22.4481 1.18491L22.7857 1.08838L23.0472 2.00007C23.2004 2.53314 22.927 2.75857 22.5833 2.85696C22.2314 2.95785 21.8877 2.90305 21.7382 2.38244L21.4748 1.46389L21.8123 1.36737Z" fill="#272727"/>
<path d="M26.0945 1.40984L26.1842 2.05251L25.8448 2.09984L25.6212 0.493792L26.3268 0.395402C26.6774 0.346828 26.8922 0.513093 26.9271 0.761566C26.957 0.977035 26.8561 1.11031 26.7465 1.17383C26.83 1.19189 26.962 1.25852 27.0018 1.5456L27.013 1.62469C27.028 1.73243 27.0461 1.85573 27.0784 1.92797L26.749 1.97342C26.711 1.90741 26.6892 1.78785 26.6656 1.61722L26.6625 1.59355C26.6382 1.41794 26.5821 1.34072 26.323 1.37683L26.0945 1.40984ZM26.0565 1.13335L26.348 1.09287C26.5379 1.06671 26.6014 0.983887 26.5827 0.849375C26.5647 0.718599 26.4688 0.657574 26.2994 0.681238L25.9998 0.722957L26.0565 1.13335Z" fill="#272727"/>
<path d="M30.0174 1.37539L29.8885 1.74903L29.5441 1.74654L30.1058 0.128662L30.5461 0.131771L31.1091 1.75713L30.7404 1.75464L30.6096 1.37912L30.0174 1.37539ZM30.5362 1.09204C30.4234 0.74891 30.3518 0.529706 30.3132 0.383984H30.3107C30.2696 0.543406 30.1868 0.797481 30.0928 1.08892L30.5362 1.09204Z" fill="#272727"/>
<path d="M33.8394 0.336914L34.1869 0.384243L34.0063 1.7057L34.8065 1.8153L34.728 2.09429L33.6202 1.94296L33.8394 0.336914Z" fill="#272727"/>
</g>
</svg>
