<svg width="20" height="16" viewBox="0 0 20 16" fill="none" xmlns="http://www.w3.org/2000/svg">
<path d="M4.29041 7.08451C4.29041 7.08451 0.971673 9.08034 0.880121 9.28175C0.78857 9.48317 0.918268 9.503 0.994561 9.48774C1.07085 9.47248 1.49809 9.28175 1.49809 9.28175C1.82768 9.08034 4.83972 7.73301 6.30455 7.08451C7.19717 6.58098 7.31161 7.08451 7.31161 7.24473C7.31161 7.3729 7.2048 7.6796 7.1514 7.81692C7.00547 8.83624 8.5323 8.48067 9.21131 8.16024C9.76062 7.83066 11.6832 7.16844 12.5758 6.87852C13.3265 6.73204 13.3922 7.06163 13.3311 7.24473C13.2762 7.42783 13.1251 7.5499 13.0565 7.58805C12.8001 7.95425 13.0565 8.1221 13.2167 8.16024C13.6928 8.14193 14.7273 8.32046 15.185 8.41201C15.6657 8.41201 19.4422 9.64795 19.488 9.69373C19.726 9.69373 19.7092 9.5564 19.6711 9.48774L18.6869 8.86977L13.8575 5.89435C13.2167 5.50983 12.736 5.6731 12.5758 5.80279C11.9579 6.15374 10.6899 6.87852 10.5617 6.97008C10.2321 7.22642 9.89031 7.07689 9.76062 6.97008L8.04403 5.96301C7.49472 5.61511 7.21146 5.58617 6.80808 5.71124C6.4047 5.83632 4.29041 7.08451 4.29041 7.08451Z" fill="#06382A"/>
<path d="M2.61816 4.36879V1.03898C2.61816 0.969587 2.67442 0.91333 2.74382 0.91333H6.0108" stroke="#222222" stroke-width="0.439786" stroke-linecap="round"/>
<path d="M17.9482 11.5939V14.9237C17.9482 14.9931 17.892 15.0493 17.8226 15.0493H14.5556" stroke="#222222" stroke-width="0.439786" stroke-linecap="round"/>
<path d="M17.9482 4.36879V1.03898C17.9482 0.969587 17.892 0.91333 17.8226 0.91333H14.5556" stroke="#222222" stroke-width="0.439786" stroke-linecap="round"/>
<path d="M2.61816 11.5939V14.9237C2.61816 14.9931 2.67442 15.0493 2.74382 15.0493H6.0108" stroke="#222222" stroke-width="0.439786" stroke-linecap="round"/>
<circle cx="15.8102" cy="2.98687" r="0.691092" fill="#06382A"/>
</svg>
