<svg width="93" height="21" viewBox="0 0 93 21" fill="none" xmlns="http://www.w3.org/2000/svg">
<path d="M10.4941 15.1027L15.8985 18.3646L14.4643 12.2169L19.2392 8.08045L12.9515 7.547L10.4941 1.74902L8.03672 7.547L1.74902 8.08045L6.52383 12.2169L5.08964 18.3646L10.4941 15.1027Z" fill="#F8A401"/>
<path d="M28.497 15.1027L33.9015 18.3646L32.4673 12.2168L37.2421 8.08039L30.9544 7.54694L28.497 1.74896L26.0397 7.54694L19.752 8.08039L24.5268 12.2168L23.0926 18.3646L28.497 15.1027Z" fill="#F8A401"/>
<path d="M46.5 15.1027L51.9045 18.3646L50.4703 12.2168L55.2451 8.08039L48.9574 7.54694L46.5 1.74896L44.0426 7.54694L37.7549 8.08039L42.5297 12.2168L41.0956 18.3646L46.5 15.1027Z" fill="#F8A401"/>
<path d="M64.503 15.1027L69.9074 18.3646L68.4733 12.2168L73.2481 8.08039L66.9604 7.54694L64.503 1.74896L62.0456 7.54694L55.7579 8.08039L60.5327 12.2168L59.0985 18.3646L64.503 15.1027Z" fill="#F8A401"/>
<path d="M82.5059 15.1027L87.9104 18.3646L86.4762 12.2168L91.251 8.08039L84.9633 7.54694L82.5059 1.74896L80.0486 7.54694L73.7609 8.08039L78.5357 12.2168L77.1015 18.3646L82.5059 15.1027Z" fill="#F8A401"/>
</svg>
