<svg width="51" height="51" viewBox="0 0 51 51" fill="none" xmlns="http://www.w3.org/2000/svg">
<circle cx="25.5" cy="25.5" r="25.5" fill="white"/>
<path d="M36.5373 35.0149H28.0583C27.2299 32.2808 26.8157 29.4473 26.8157 26.5144C26.8157 23.5318 27.571 21.1705 29.0817 19.4306C30.641 17.6411 32.9313 16.7463 35.9526 16.7463V20.922C33.5161 20.922 32.2978 22.4381 32.2978 25.4705V26.8872H36.5373V35.0149ZM24.1843 35.0149H15.7053C14.8769 32.2808 14.4627 29.4473 14.4627 26.5144C14.4627 23.5318 15.218 21.1705 16.7286 19.4306C18.288 17.6411 20.5783 16.7463 23.5996 16.7463V20.922C21.1631 20.922 19.9448 22.4381 19.9448 25.4705V26.8872H24.1843V35.0149Z" fill="#6C4C32"/>
</svg>
