<svg width="8" height="8" viewBox="0 0 8 8" fill="none" xmlns="http://www.w3.org/2000/svg">
<g clip-path="url(#clip0_2_150)">
<path fill-rule="evenodd" clip-rule="evenodd" d="M3.74254 0.670898C2.89549 0.670898 2.78945 0.674292 2.45678 0.688863C2.12474 0.703433 1.8979 0.754132 1.69954 0.828184C1.49163 0.903234 1.30305 1.021 1.14711 1.17349C0.988513 1.32302 0.865766 1.50393 0.78741 1.70363C0.710689 1.89405 0.65767 2.11202 0.642492 2.43078C0.627522 2.74994 0.623779 2.85154 0.623779 3.66491C0.623779 4.47829 0.627314 4.57988 0.642492 4.89924C0.65767 5.21801 0.710481 5.43577 0.787618 5.62619C0.865795 5.82579 0.988467 6.00683 1.14732 6.15653C1.30308 6.30878 1.49153 6.42661 1.69954 6.50184C1.8979 6.57569 2.12474 6.62639 2.45678 6.64096C2.78945 6.65553 2.89549 6.65893 3.74254 6.65893C4.5896 6.65893 4.69564 6.65553 5.02831 6.64096C5.36035 6.62639 5.58719 6.57569 5.78554 6.50164C5.99346 6.42659 6.18204 6.30883 6.33798 6.15633C6.49657 6.0068 6.61932 5.82589 6.69768 5.62619C6.77461 5.43577 6.82742 5.21801 6.8426 4.89924C6.85777 4.57988 6.86131 4.47809 6.86131 3.66491C6.86131 2.85174 6.85777 2.74994 6.8426 2.43058C6.82742 2.11182 6.77461 1.89405 6.69747 1.70363C6.61917 1.50385 6.49642 1.32286 6.33777 1.17329C6.18201 1.02104 5.99356 0.903206 5.78554 0.827984C5.58719 0.754332 5.36014 0.703433 5.0281 0.688863C4.69564 0.674491 4.58981 0.670898 3.74254 0.670898ZM3.74254 1.21042C4.57525 1.21042 4.67401 1.21341 5.00294 1.22778C5.30692 1.24116 5.472 1.28966 5.58199 1.33098C5.72753 1.38507 5.83149 1.45014 5.94065 1.55473C6.04981 1.65952 6.11738 1.75932 6.17372 1.89904C6.21656 2.00463 6.26729 2.16311 6.28122 2.45493C6.29619 2.7707 6.29931 2.86551 6.29931 3.66491C6.29931 4.46431 6.29619 4.55912 6.28122 4.87489C6.26729 5.16671 6.21676 5.32519 6.17372 5.43078C6.12381 5.56083 6.04417 5.67848 5.94065 5.77509C5.84003 5.87449 5.71747 5.95095 5.58199 5.99885C5.472 6.03996 5.30692 6.08867 5.00294 6.10204C4.67401 6.11641 4.57546 6.1194 3.74254 6.1194C2.90963 6.1194 2.81107 6.11641 2.48215 6.10204C2.17817 6.08867 2.01308 6.04016 1.9031 5.99885C1.76763 5.95093 1.64507 5.87447 1.54444 5.77509C1.44093 5.67848 1.36129 5.56082 1.31136 5.43078C1.26853 5.32519 1.2178 5.16671 1.20387 4.87489C1.1889 4.55912 1.18578 4.46431 1.18578 3.66491C1.18578 2.86551 1.1889 2.7707 1.20387 2.45493C1.2178 2.16311 1.26832 2.00463 1.31136 1.89904C1.36771 1.75932 1.43549 1.65952 1.54444 1.55473C1.64506 1.45534 1.76762 1.37888 1.9031 1.33098C2.01308 1.28986 2.17817 1.24116 2.48215 1.22778C2.81107 1.21341 2.90983 1.21042 3.74254 1.21042Z" fill="black"/>
<path fill-rule="evenodd" clip-rule="evenodd" d="M3.74255 4.66391C3.60589 4.66391 3.47057 4.63807 3.34432 4.58787C3.21806 4.53767 3.10334 4.46408 3.00671 4.37131C2.91008 4.27855 2.83343 4.16842 2.78113 4.04721C2.72884 3.92601 2.70192 3.7961 2.70192 3.66491C2.70192 3.53372 2.72884 3.40381 2.78113 3.28261C2.83343 3.16141 2.91008 3.05128 3.00671 2.95851C3.10334 2.86574 3.21806 2.79216 3.34432 2.74195C3.47057 2.69175 3.60589 2.66591 3.74255 2.66591C4.01854 2.66591 4.28323 2.77116 4.47838 2.95851C4.67354 3.14586 4.78318 3.39996 4.78318 3.66491C4.78318 3.92986 4.67354 4.18396 4.47838 4.37131C4.28323 4.55866 4.01854 4.66391 3.74255 4.66391ZM3.74255 2.12599C3.31739 2.12599 2.90965 2.28812 2.60902 2.57673C2.3084 2.86533 2.1395 3.25676 2.1395 3.66491C2.1395 4.07306 2.3084 4.46449 2.60902 4.75309C2.90965 5.0417 3.31739 5.20383 3.74255 5.20383C4.1677 5.20383 4.57544 5.0417 4.87607 4.75309C5.1767 4.46449 5.34559 4.07306 5.34559 3.66491C5.34559 3.25676 5.1767 2.86533 4.87607 2.57673C4.57544 2.28812 4.1677 2.12599 3.74255 2.12599ZM5.81195 2.09804C5.81195 2.19452 5.77203 2.28705 5.70097 2.35527C5.6299 2.42349 5.53352 2.46182 5.43302 2.46182C5.33252 2.46182 5.23614 2.42349 5.16508 2.35527C5.09402 2.28705 5.05409 2.19452 5.05409 2.09804C5.05409 2.00157 5.09402 1.90904 5.16508 1.84082C5.23614 1.7726 5.33252 1.73427 5.43302 1.73427C5.53352 1.73427 5.6299 1.7726 5.70097 1.84082C5.77203 1.90904 5.81195 2.00157 5.81195 2.09804Z" fill="black"/>
</g>
<defs>
<clipPath id="clip0_2_150">
<rect width="7.48503" height="7.18563" fill="white" transform="translate(0 0.0720215)"/>
</clipPath>
</defs>
</svg>
