<svg width="8" height="8" viewBox="0 0 8 8" fill="none" xmlns="http://www.w3.org/2000/svg">
<g clip-path="url(#clip0_2_151)">
<path fill-rule="evenodd" clip-rule="evenodd" d="M3.74302 1.34131C1.98624 1.34131 0.623779 2.57677 0.623779 4.24585C0.623779 5.11881 0.996597 5.87294 1.60314 6.39374C1.65357 6.43756 1.6844 6.49812 1.68679 6.5642L1.70399 7.09716C1.70523 7.13634 1.71648 7.17463 1.73677 7.20866C1.75705 7.24269 1.78574 7.2714 1.8203 7.29228C1.85487 7.31315 1.89425 7.32555 1.93498 7.32837C1.97571 7.33119 2.01654 7.32435 2.05387 7.30846L2.67308 7.04645C2.7259 7.02443 2.78445 7.02007 2.83942 7.03429C3.12381 7.10932 3.4266 7.14992 3.74207 7.14992C5.49885 7.14992 6.86131 5.91469 6.86131 4.24562C6.86131 2.57677 5.49909 1.34131 3.74302 1.34131ZM5.38079 3.61034L4.59979 4.79945C4.57039 4.84421 4.53166 4.88264 4.48604 4.91232C4.44041 4.942 4.38887 4.96229 4.33467 4.9719C4.28047 4.98151 4.22479 4.98025 4.17113 4.96818C4.11746 4.95611 4.06698 4.9335 4.02287 4.90178L3.40151 4.45485C3.37384 4.43501 3.34022 4.42428 3.30568 4.42428C3.27113 4.42428 3.23752 4.43501 3.20984 4.45485L2.37148 5.06582C2.26035 5.14726 2.11338 5.01855 2.18794 4.90522L2.96895 3.7161C2.99834 3.67134 3.03707 3.63291 3.0827 3.60323C3.12832 3.57355 3.17986 3.55326 3.23406 3.54365C3.28826 3.53404 3.34394 3.53531 3.39761 3.54738C3.45127 3.55944 3.50175 3.58205 3.54586 3.61378L4.16722 4.0607C4.19489 4.08055 4.22851 4.09127 4.26305 4.09127C4.2976 4.09127 4.33121 4.08055 4.35889 4.0607L5.19725 3.44974C5.30957 3.36714 5.45655 3.49585 5.38079 3.61034Z" fill="#222222"/>
</g>
<defs>
<clipPath id="clip0_2_151">
<rect width="7.48503" height="7.18563" fill="white" transform="translate(0 0.742432)"/>
</clipPath>
</defs>
</svg>
